<?xml version="1.0" encoding="UTF-8"?>
<svg id="SVGDoc" width="20" height="22" xmlns="http://www.w3.org/2000/svg" version="1.1" xmlns:xlink="http://www.w3.org/1999/xlink" xmlns:avocode="https://avocode.com/" viewBox="0 0 20 22"><defs></defs><desc>Generated with Avocode.</desc><g><g><title>trash</title><path d="M18.75191,5.62156l-1.72576,13.80639c0,1.42972 -1.15899,2.58869 -2.58868,2.58869h-8.62912c-1.42961,0 -2.58868,-1.15897 -2.58868,-2.58869l-1.72584,-13.80639zM5.80835,19.42795h1.72584v-11.2177h-1.72584zM9.26003,19.42795h1.72576v-11.2177h-1.72576zM12.71155,19.42795h1.72592v-11.2177h-1.72592zM8.3972,0.44418h3.4516c0.47656,0 0.86292,1.72575 0.86292,1.72575h-5.17752c0,0 0.38644,-1.72575 0.863,-1.72575zM1.92559,2.17007h16.39515c0.71489,0 1.29442,0.57941 1.29442,1.29427c0,0.715 0,1.29442 0,1.29442h-18.98383c0,0 0,-0.57941 0,-1.29442c0,-0.71486 0.57945,-1.29427 1.29426,-1.29427z" fill="#888888" fill-opacity="1"></path></g></g></svg>