<?xml version="1.0" encoding="UTF-8"?>
<svg id="SVGDoc" width="10" height="10" xmlns="http://www.w3.org/2000/svg" version="1.1" xmlns:xlink="http://www.w3.org/1999/xlink" xmlns:avocode="https://avocode.com/" viewBox="0 0 10 10"><defs></defs><desc>Generated with Avocode.</desc><g><g><title>error при наведении</title><path d="M6.57227,5.08107v0l2.95951,2.95954c0.19226,0.19224 0.19226,0.50416 0,0.6964l-1.0445,1.04453c-0.19234,0.19224 -0.5041,0.19224 -0.69636,0l-2.95951,-2.95954v0l-2.9596,2.95954c-0.19234,0.19224 -0.5041,0.19224 -0.69636,0l-1.04458,-1.04453c-0.19226,-0.19224 -0.19226,-0.50416 0,-0.6964l2.9596,-2.95954v0l-2.9596,-2.95939c-0.19226,-0.19252 -0.19226,-0.50431 0,-0.69655l1.04458,-1.04453c0.19226,-0.19224 0.50402,-0.19224 0.69636,0l2.9596,2.95954v0l2.95951,-2.95954c0.19226,-0.19224 0.50402,-0.19224 0.69636,0l1.0445,1.04453c0.19226,0.19224 0.19226,0.50402 0,0.69655z" fill="#53b5de" fill-opacity="1"></path></g></g></svg>