<?xml version="1.0" encoding="UTF-8"?>
<svg id="SVGDoc" width="16" height="16" xmlns="http://www.w3.org/2000/svg" version="1.1" xmlns:xlink="http://www.w3.org/1999/xlink" xmlns:avocode="https://avocode.com/" viewBox="0 0 16 16"><defs></defs><desc>Generated with Avocode.</desc><g><g><title>error при наведении</title><path d="M10.81259,7.94808v0l4.86894,4.86914c0.31626,0.31622 0.31626,0.82915 0,1.14561l-1.7185,1.71841c-0.31635,0.31622 -0.82929,0.31622 -1.14555,0l-4.86894,-4.8689v0l-4.86894,4.8689c-0.31643,0.31622 -0.82929,0.31622 -1.14564,0l-1.71858,-1.71841c-0.31626,-0.31646 -0.31626,-0.82939 0,-1.14561l4.86902,-4.86914v0l-4.86902,-4.86865c-0.31626,-0.31646 -0.31626,-0.82951 0,-1.14573l1.71858,-1.71841c0.31635,-0.31634 0.82921,-0.31634 1.14564,0l4.86894,4.86878v0l4.86894,-4.86878c0.31626,-0.31634 0.82921,-0.31634 1.14555,0l1.7185,1.71841c0.31626,0.31622 0.31626,0.82927 0,1.14573z" fill="#f68038" fill-opacity="1"></path></g></g></svg>